<svg xmlns="http://www.w3.org/2000/svg" xmlns:xlink="http://www.w3.org/1999/xlink" width="0" height="0" style="position:absolute">
	
		<symbol id="architect" viewBox="-10 0 512 512.001">
			<path d="M214.656 292.715H21.668c-8.824 0-8.824-13.34 0-13.34h174.289c9.918 0 9.93-14.996 0-14.996H36.453V43.336h407.184v221.043h-48.27c-9.914 0-9.933 14.996 0 14.996h65.77c8.82 0 8.82 13.34 0 13.34h-83.13c-9.913 0-9.929 15 0 15h83.13c11.945 0 21.664-9.723 21.664-21.668 0-11.95-9.719-21.668-21.664-21.668h-2.5V43.336h2.5c11.945 0 21.664-9.723 21.664-21.668C482.8 9.718 473.082 0 461.137 0H21.668C9.718 0 0 9.719 0 21.668c0 11.875 9.605 21.55 21.453 21.668v221.043C9.605 264.496 0 274.168 0 286.047c0 11.945 9.719 21.668 21.668 21.668h192.988c9.914 0 9.93-15 0-15zM21.668 15h439.469c8.82 0 8.82 13.336 0 13.336H21.668c-8.828 0-8.816-13.336 0-13.336zm0 0"></path><path d="M129.078 70.465c0-6.586-5.36-11.942-11.945-11.942H70.05c-6.586 0-11.942 5.356-11.942 11.942V99.55c0 6.586 5.356 11.941 11.942 11.941h47.082c6.586 0 11.945-5.355 11.945-11.941zm-15 26.027H73.105V73.52h40.973zm0 0M129.078 139.969c0-6.586-5.36-11.942-11.945-11.942H70.05c-6.586 0-11.942 5.356-11.942 11.942v29.086c0 6.586 5.356 11.941 11.942 11.941h47.082c6.586 0 11.945-5.355 11.945-11.941zm-15 26.027H73.105v-22.973h40.973zm0 0M117.133 197.531H70.05c-6.586 0-11.942 5.356-11.942 11.942v29.086c0 6.586 5.356 11.941 11.942 11.941h47.082c6.586 0 11.945-5.355 11.945-11.941v-29.086c0-6.586-5.36-11.942-11.945-11.942zm-3.055 37.973H73.105v-22.977h40.973zm0 0M446.352 340.781c-8.168-3.511-16.735-6.02-25.461-7.719l-75.989-14.773v-18.777c21.34-14.555 32.891-35.172 35.407-58.324 11.074-.88 19.82-10.172 19.82-21.47v-15.413c18.058-7.852 15.617-34.203-3.488-38.649v-5.953c0-53.48-43.356-96.84-96.84-96.84h-8.117c-53.485 0-96.84 43.36-96.84 96.84v5.95c-19.098 4.445-21.547 30.8-3.485 38.652v15.41c0 11.3 8.743 20.594 19.82 21.469 2.505 23.046 13.915 43.668 35.407 58.328v18.773l-75.988 14.778c-8.727 1.699-17.293 4.203-25.461 7.718-30.832 13.27-45.875 34.453-45.875 64.375v15.406c0 9.915 14.996 9.93 14.996 0V405.16c0-22.472 10.21-38.012 32.61-48.746.902 3.992 14.644 41.293 14.644 93.41v47.18H129.82c-8.593 0-15.562-6.969-15.562-15.563v-31.039c0-9.914-14.996-9.93-14.996 0v31.04c0 16.878 13.68 30.558 30.558 30.558h331.848c16.879 0 30.559-13.68 30.559-30.559v-76.28c0-29.927-15.047-51.11-45.875-64.38zm-15.715 10.059c-1.043 4.578-15.66 43.93-15.66 98.984v47.18H303.242v-37.785A53.98 53.98 0 0 1 313.125 428c9.684-13.77 49.57-71.32 61.398-88.672 53.836 10.84 47.344 8.594 56.114 11.512zm-140.008 68.527c-5.754-8.18-13.227-18.914-21.027-30.164a22.48 22.48 0 0 0 6.699-2.672l19.441-11.66 19.442 11.66a22.48 22.48 0 0 0 6.699 2.672c-7.793 11.246-15.266 21.977-21.024 30.164a70.13 70.13 0 0 0-5.117 8.488 69.603 69.603 0 0 0-5.113-8.488zm-10.195-52.805c-11.875 6.36-11.032 8.262-16.426 7.622-3.356-.399-6.367-2.266-8.29-5.047a22419.796 22419.796 0 0 1-22.698-32.934l15.02-2.918c4.85 14.735 20.839 26.453 32.394 33.277zm78.035-30.355c-5.45 7.918-13.77 20-22.758 33.016-3.668 5.304-10.242 5.984-12.813 4.441l-11.847-7.102c11.558-6.824 27.543-18.542 32.394-33.277zM252.063 88.109v9.407c0 9.914 14.996 9.93 14.996 0V81.648a81.35 81.35 0 0 1 21.187-3.71v37.082c0 9.914 14.996 9.93 14.996 0V77.937a81.454 81.454 0 0 1 21.184 3.711v15.868c0 9.914 15 9.93 15 0v-9.403c46.883 26.047 41.898 75.828 42.219 77.016H209.844c.258-.965-4.422-51.102 42.218-77.02zm-52.586 92.016h192.535c7.191 0 7.18 10.863 0 10.863H199.477c-7.192 0-7.18-10.863 0-10.863zm26.226 53.469a7.499 7.499 0 0 0-7.5-7.336c-1.25-.313-11.844 1.945-11.844-6.54v-13.73h178.774v13.73c0 8.473-10.883 6.298-11.848 6.54a7.496 7.496 0 0 0-7.5 7.336c-.402 18.75-8.367 36.164-21.86 47.777-28.64 24.66-67.718 24.664-96.362 0-13.493-11.613-21.461-29.031-21.86-47.777zm104.2 74.199v16.676c0 13.41-22.758 27.61-34.16 33.347-11.391-5.734-34.098-19.898-34.161-33.293V307.793a86.117 86.117 0 0 0 68.32 0zM160.851 350.84c8.757-2.91 2.25-.668 56.109-11.512l4.285 6.227c4.371 6.355 10.422 15.14 17.129 24.86 12.234 17.733 29.11 42.12 39.988 57.581 6.465 9.191 9.883 19.984 9.883 31.223V497H176.512v-47.18c0-56.468-14.262-92.824-15.66-98.98zM477.227 481.44c0 8.579-6.977 15.559-15.559 15.559h-31.691v-47.176c0-50.687 14.09-90.957 14.648-93.41 22.395 10.734 32.605 26.273 32.605 48.746v76.281zm0 0"></path><path d="M336.625 433.785c-7.07 0-12.824 5.754-12.824 12.824v15.028c0 7.074 5.754 12.824 12.824 12.824h44.105c7.07 0 12.825-5.75 12.825-12.824v-15.028c0-7.07-5.754-12.824-12.825-12.824zm41.93 25.676H338.8v-10.676h39.754zm0 0"></path>
		</symbol>
	
		<symbol id="coins" viewBox="0 0 60 60">
			<path d="M59.989 21c-.099-1.711-2.134-3.048-6.204-4.068.137-.3.214-.612.215-.936V9h-.017C53.625 3.172 29.743 3 27 3S.375 3.172.017 9H0v6.999c.005 1.9 2.457 3.387 6.105 4.494-.05.166-.08.335-.09.507H6v6.987C2.07 28.999.107 30.317.01 32H0v6.999c.003 1.323 1.196 2.445 3.148 3.38-.074.203-.12.41-.133.622H3V50c.008 3.326 7.497 5.391 15.818 6.355.061.012.117.037.182.037.019 0 .035-.01.054-.011 1.604.181 3.234.322 4.847.423.034.004.064.02.099.02.019 0 .034-.01.052-.011A99.33 99.33 0 0 0 30 57c1.885 0 3.9-.063 5.948-.188.018.001.034.011.052.011.035 0 .065-.017.099-.02a96.863 96.863 0 0 0 4.847-.423c.019 0 .035.01.054.01.065 0 .121-.025.182-.037 8.321-.964 15.809-3.03 15.818-6.357V43h-.016c-.07-1.226-1.115-2.249-3.179-3.104.126-.289.195-.589.195-.9V32.46c3.59-1.104 5.995-2.581 6-4.464V21h-.011zm-8.097 18.321l-.341.299c-.525.463-1.4.93-2.551 1.38v-4.768c1.189-.414 2.201-.873 3-1.376v4.138a.636.636 0 0 1-.108.327zm-22.366 4.647c-.146.004-.293.006-.44.009-.357.007-.723.009-1.085.012v-4.995l.825-.012.159-.003c1.007-.019 2.014-.05 3.016-.096v4.993a88.817 88.817 0 0 1-2.475.092zm-4.367.014c-.458-.008-.914-.019-1.367-.033l-.168-.006c-.545-.018-1.086-.041-1.623-.067v-4.992a104.147 104.147 0 0 0 3.174.099l.825.012v4.998c-.194-.002-.388-.002-.581-.005-.088-.002-.173-.005-.26-.006zm-18.062-2.28A3.537 3.537 0 0 0 7 41.674v-4.831c.934.252 1.938.482 3 .691v4.881c-.918-.195-1.765-.4-2.536-.61-.122-.035-.248-.068-.367-.103zm21.078 8.281l.825.012v4.999a101.034 101.034 0 0 1-4-.116v-4.993a104.147 104.147 0 0 0 3.175.098zm3.809-.003c1.007-.019 2.014-.05 3.016-.096v4.993c-1.284.063-2.618.103-4 .116v-4.999a113.474 113.474 0 0 0 .984-.014zM40 49.528v4.966c-.961.101-1.961.19-3 .263V49.77a96.415 96.415 0 0 0 3-.242zm2-.216a73.794 73.794 0 0 0 3-.422v4.91c-.942.166-1.943.319-3 .458v-4.946zm5-.779a44.704 44.704 0 0 0 3-.691v4.831c-.891.257-1.894.506-3 .741v-4.881zm-34 0v4.881a43.562 43.562 0 0 1-3-.741v-4.831c.934.252 1.938.483 3 .691zm2 .358c.968.157 1.969.298 3 .422v4.946a69.655 69.655 0 0 1-3-.458v-4.91zm5 .637a99.56 99.56 0 0 0 3 .243v4.987a87.083 87.083 0 0 1-3-.263v-4.967zm-2.481-5.98l-.304-.031-.215-.023v-4.965a99.56 99.56 0 0 0 3 .243v4.983a96.79 96.79 0 0 1-2.481-.207zM15 38.312v4.946a69.655 69.655 0 0 1-3-.458v-4.91c.968.157 1.969.299 3 .422zm19.666 5.396l-.666.05v-4.987a96.392 96.392 0 0 0 3-.243v4.966a81.624 81.624 0 0 1-2.334.214zm4.334-.45v-4.946a73.794 73.794 0 0 0 3-.422v4.91c-.942.166-1.943.32-3 .458zm5-5.725a44.704 44.704 0 0 0 3-.691v4.831c-.891.257-1.894.506-3 .741v-4.881zm-13.675-4.568a95.164 95.164 0 0 1-2.209-.083L28 32.877v-4.993a104.147 104.147 0 0 0 3.174.099l.825.012v4.993c-.487-.005-.978-.007-1.453-.018l-.221-.005zM7 18.674v-4.831c.934.252 1.938.482 3 .691v4.881l-.37-.078A42.126 42.126 0 0 1 7 18.674zm18.175-2.691l.825.012v4.993a99.16 99.16 0 0 1-4-.114v-4.989a104.147 104.147 0 0 0 3.175.098zm3.809-.003c1.007-.019 2.014-.05 3.016-.096v4.989c-.17.008-.333.02-.504.028l-.043.002c-.671.03-1.355.052-2.048.068l-.324.007c-.356.007-.72.008-1.081.012v-4.995l.825-.012.159-.003zm22.787.502l-.028-.006-.364.283c-.528.411-1.339.827-2.379 1.229v-4.757c1.189-.414 2.201-.873 3-1.376v4.138c0 .152-.08.316-.229.489zM39 20.252v-4.94a73.794 73.794 0 0 0 3-.422v4.902c-.948.168-1.946.322-3 .46zm5-.845v-4.873a44.704 44.704 0 0 0 3-.691v4.82c-.896.261-1.905.51-3 .744zm-7-3.879v4.96c-.966.102-1.966.191-3 .265v-4.982a99.56 99.56 0 0 0 3-.243zM17 20.49v-4.962a99.56 99.56 0 0 0 3 .243v4.978a90.68 90.68 0 0 1-3-.259zm-2-5.178v4.941c-.198-.026-.404-.047-.6-.074l-.376-.055a72.39 72.39 0 0 1-1.697-.265L12 19.801v-4.91c.968.156 1.969.298 3 .421zm10.752 17.427l-.405-.03c-.64-.05-1.265-.105-1.875-.166l-.392-.04c-.027-.003-.053-.007-.08-.009v-4.966a99.56 99.56 0 0 0 3 .243v4.984l-.248-.016zm-6.607-.747c-.396-.063-.768-.131-1.145-.197v-4.904c.968.157 1.969.298 3 .422v4.946a76.718 76.718 0 0 1-1.855-.267zM16 26.533v4.873a42.01 42.01 0 0 1-3-.751v-4.813c.934.252 1.938.483 3 .691zm-5-1.302v4.751c-1.572-.607-2.586-1.227-2.916-1.779l-.067-.112c-.006-.031-.016-.064-.017-.095v-4.141c.799.503 1.811.962 3 1.376zm23.984 2.749c1.007-.019 2.014-.05 3.016-.096v4.988c-1.314.065-2.65.101-4 .115v-4.992l.825-.012.159-.003zm12.923 3.837a64.384 64.384 0 0 1-2.133.336c-.253.036-.516.067-.773.1v-4.941a73.794 73.794 0 0 0 3-.422v4.91l-.094.017zm-6.771.854c-.373.031-.758.051-1.136.078v-4.978a96.392 96.392 0 0 0 3-.243v4.961c-.581.061-1.161.122-1.758.172l-.106.01zm11.428-1.875a46.66 46.66 0 0 1-2.326.568c-.077.017-.159.032-.237.049v-4.879a44.704 44.704 0 0 0 3-.691v4.831l-.437.122zm5.425-9.731c-.092.679-1.631 1.582-4.378 2.431-3.538 1.093-9.074 2.094-16.09 2.404-.359.015-.717.03-1.083.042-.299.01-.599.019-.904.027-.828.018-1.668.031-2.534.031s-1.706-.013-2.534-.032c-.304-.007-.604-.017-.904-.027-.367-.011-.725-.027-1.083-.042-7.016-.31-12.553-1.311-16.09-2.404-2.725-.842-4.261-1.738-4.375-2.414.005-.019.005-.035.017-.059.068.017.144.031.213.048.391.093.792.183 1.2.269 1.987.428 4.189.779 6.535 1.047.008 0 .014.004.021.004l.005-.001c1.598.182 3.256.325 4.958.426.013 0 .024.007.037.007.007 0 .012-.004.019-.004a102.259 102.259 0 0 0 7.587.166c7.266-.112 14-.976 18.686-2.315.216-.061.427-.124.635-.187.127-.039.257-.077.38-.116.362-.116.709-.235 1.044-.359l.171-.066c.283-.107.555-.218.815-.331.075-.033.152-.065.225-.098.277-.125.545-.253.793-.386.112-.059.209-.12.314-.18a8.8 8.8 0 0 0 .351-.21c.063-.04.138-.078.198-.118 4.477.971 5.657 2.033 5.771 2.447zM27 5c16.489 0 24.829 2.596 24.985 4.086-.121.676-1.656 1.569-4.374 2.409-3.538 1.093-9.074 2.094-16.09 2.404-.359.015-.717.03-1.083.042A109.893 109.893 0 0 1 27 14c-.866 0-1.706-.013-2.534-.032-.304-.007-.604-.017-.904-.027-.367-.011-.725-.027-1.083-.042-7.016-.31-12.553-1.311-16.09-2.404-2.719-.84-4.253-1.733-4.374-2.409C2.171 7.596 10.511 5 27 5zM2 15.996v-4.141c.799.503 1.811.962 3 1.376v4.788c-1.945-.729-2.998-1.46-3-2.023zm4.844 13.839c.015.016.038.03.053.046 1.369 1.382 4.204 2.468 7.733 3.278l.249.056c.259.058.522.115.788.17 3.241.69 7.11 1.189 11.325 1.436l.007.001.004-.001c1.354.079 2.739.134 4.153.158a89.072 89.072 0 0 0 3.962-.004c1.308-.027 2.597-.081 3.868-.155.005 0 .009.003.014.003.009 0 .016-.005.025-.005 4.226-.249 8.191-.753 11.544-1.478-.726.38-1.72.773-2.958 1.156-3.735 1.154-9.7 2.205-17.281 2.449-.225.007-.447.015-.675.021-.245.006-.494.01-.743.015-.629.01-1.262.019-1.912.019-.866 0-1.706-.013-2.534-.032-.304-.007-.604-.017-.904-.027-.367-.011-.725-.027-1.083-.042-7.016-.31-12.553-1.311-16.09-2.404-2.75-.85-4.289-1.754-4.378-2.433.111-.376 1.122-1.317 4.833-2.227zM2 38.996v-4.141c.799.503 1.811.962 3 1.376V41l-.571-.222-.012.012C2.847 40.139 2.002 39.5 2 38.996zm3 11v-4.141c.799.503 1.811.962 3 1.376v4.788c-1.945-.729-2.998-1.46-3-2.023zm47 2.023v-4.787c1.189-.414 2.201-.873 3-1.376v4.138c-.001.563-1.055 1.295-3 2.025zm2.987-8.942c-.109.677-1.645 1.575-4.376 2.419-3.538 1.093-9.074 2.094-16.09 2.404-.359.015-.717.03-1.083.042-.299.01-.599.019-.904.027-.828.018-1.668.031-2.534.031-.866 0-1.707-.013-2.536-.032-.301-.007-.598-.017-.895-.027-.369-.012-.729-.027-1.09-.042-7.016-.31-12.552-1.311-16.09-2.404-2.645-.817-4.173-1.685-4.365-2.355a29.508 29.508 0 0 0 2.173.663c.16.043.324.084.488.126 3.642.933 8.291 1.594 13.31 1.891l.005.001.003-.001c1.55.092 3.133.149 4.733.168.426.008.849.012 1.264.012.551 0 1.115-.007 1.686-.017a100.08 100.08 0 0 0 4.307-.162l.008.002c.005 0 .008-.003.013-.003a92.054 92.054 0 0 0 4.97-.433c.006 0 .011.003.017.003.022 0 .04-.011.062-.013a72.52 72.52 0 0 0 6.186-.976c2.953-.606 5.509-1.391 7.263-2.364.096-.052.186-.106.277-.159.111-.066.217-.133.32-.201.096-.062.207-.122.295-.185 1.974.704 2.518 1.334 2.583 1.585zM55 30.019v-4.787c1.189-.41 2.201-.873 3-1.376v4.138c-.001.563-1.055 1.295-3 2.025z"></path>
		</symbol>
	
		<symbol id="diploma" viewBox="-20 0 476 476.32504">
			<path d="M360.164 352c0-26.508-21.492-48-48-48-26.512 0-48 21.492-48 48s21.488 48 48 48c26.496-.027 47.973-21.5 48-48zm-48 32c-17.676 0-32-14.328-32-32s14.324-32 32-32c17.672 0 32 14.328 32 32s-14.328 32-32 32zm0 0"></path><path d="M434.137 428.664l-52.477-52.48c1.399-1.247 3.04-2.551 4.43-3.657 6.273-4.953 14.074-11.12 14.074-20.527s-7.809-15.574-14.074-20.527a31.873 31.873 0 0 1-7.39-7.024 30.97 30.97 0 0 1 .16-10.785c.91-8.184 1.949-17.473-4.473-23.887-6.426-6.418-15.719-5.41-23.887-4.472a30.926 30.926 0 0 1-10.777.16 31.454 31.454 0 0 1-7.032-7.395c-4.953-6.27-11.12-14.07-20.527-14.07-9.41 0-15.578 7.809-20.531 14.07a31.652 31.652 0 0 1-7.024 7.395 31.33 31.33 0 0 1-10.78-.16c-8.177-.938-17.474-1.953-23.891 4.472-6.415 6.422-5.383 15.703-4.473 23.887.683 3.555.738 7.203.16 10.777a31.672 31.672 0 0 1-7.39 7.032c-6.274 4.953-14.07 11.12-14.07 20.527s7.804 15.574 14.07 20.527c1.39 1.106 3.03 2.403 4.433 3.657l-52.48 52.48a8 8 0 0 0 4.086 13.504l23.09 4.633 4.632 23.086a7.992 7.992 0 0 0 5.535 6.09 8.009 8.009 0 0 0 8-2l52.48-52.48c1.247 1.398 2.552 3.038 3.657 4.433 4.918 6.27 11.086 14.07 20.496 14.07 9.406 0 15.574-7.809 20.527-14.07 1.102-1.395 2.399-3.035 3.657-4.434l52.48 52.48a8.002 8.002 0 0 0 13.504-4.09l4.629-23.085 23.09-4.633a8 8 0 0 0 4.086-13.504zm-199.39 23.441l-2.743-13.707a8.001 8.001 0 0 0-6.274-6.27l-13.671-2.745 32.8-32.797a18.922 18.922 0 0 0 22.68 22.687zM320.163 416c-2.059 2.602-6.32 8-8 8-1.68 0-5.93-5.398-8-8-3.375-5.148-8-9.36-13.441-12.238a24.382 24.382 0 0 0-9.489-1.649c-3.07.059-6.136.285-9.183.688a31.019 31.019 0 0 1-10.778.144 29.527 29.527 0 0 1 .09-10.832 37.762 37.762 0 0 0-.96-18.68A36.537 36.537 0 0 0 248.163 360c-2.601-2.055-8-6.32-8-8s5.399-5.93 8-8c5.149-3.375 9.36-8 12.238-13.441a37.731 37.731 0 0 0 .961-18.672 30.716 30.716 0 0 1-.144-10.774 29.698 29.698 0 0 1 10.832.086 37.583 37.583 0 0 0 18.68-.96A36.567 36.567 0 0 0 304.163 288c2.055-2.602 6.32-8 8-8 1.68 0 5.926 5.398 8 8a36.451 36.451 0 0 0 13.438 12.238 37.6 37.6 0 0 0 18.671.961 30.737 30.737 0 0 1 10.778-.144c.64 3.586.61 7.257-.09 10.832a37.808 37.808 0 0 0 .96 18.68A36.547 36.547 0 0 0 376.165 344c2.598 2.055 8 6.32 8 8s-5.402 5.93-8 8c-5.148 3.375-9.36 8-12.242 13.441a37.777 37.777 0 0 0-.961 18.672c.684 3.555.734 7.203.144 10.774a30.046 30.046 0 0 1-10.832-.086 37.628 37.628 0 0 0-18.68.96A36.556 36.556 0 0 0 320.165 416zm78.399 16.16a8.006 8.006 0 0 0-6.274 6.274l-2.742 13.671-32.8-32.8a18.92 18.92 0 0 0 22.679-22.688l32.8 32.797zm0 0"></path><path d="M176.164 432h-136c-22.082-.027-39.977-17.918-40-40V40c.024-22.082 17.918-39.973 40-40h256c22.078.027 39.973 17.918 40 40v208h-16V40c0-13.254-10.746-24-24-24h-256c-13.258 0-24 10.746-24 24v352c0 13.254 10.742 24 24 24h136zm0 0"></path><path d="M48.164 208h240v16h-240zm0 0M48.164 256h224v16h-224zm0 0M48.164 304h176v16h-176zm0 0M48.164 160h240v16h-240zm0 0M48.164 112h240v16h-240zm0 0"></path>
		</symbol>
	
		<symbol id="email" viewBox="0 0 511.996 511.996">
			<path d="M230.9 253.371c13.369 8.913 36.827 8.914 50.199-.001l.007-.004 227.865-151.911c-7.474-21.616-28.018-37.188-52.142-37.188H55.166c-24.125 0-44.668 15.572-52.143 37.188l227.87 151.912.007.004z"></path><path d="M297.746 278.328l-.007.005c-11.702 7.801-26.724 11.702-41.741 11.702-15.02 0-30.036-3.9-41.739-11.703l-.005-.003L0 135.494v257.072c0 30.417 24.747 55.163 55.166 55.163h401.666c30.418 0 55.164-24.746 55.164-55.163V135.494z"></path>
		</symbol>
	
		<symbol id="phone-call" viewBox="0 0 108.27 108.27">
			<path d="M51.954 66.588c-9.284-7.634-15.483-17.054-18.742-22.414l-2.431-4.583c.85-.912 7.332-7.853 10.141-11.619 3.53-4.729-1.588-9-1.588-9S24.933 4.569 21.651 1.712C18.369-1.149 14.591.44 14.591.44 7.693 4.897.542 8.772.113 27.408.097 44.856 13.342 62.852 27.665 76.784c14.346 15.734 34.043 31.504 53.086 31.486 18.634-.425 22.508-7.575 26.965-14.473 0 0 1.59-3.775-1.268-7.06-2.86-3.284-17.265-17.688-17.265-17.688s-4.268-5.119-8.998-1.586c-3.525 2.635-9.855 8.496-11.38 9.917.003.005-10.586-5.64-16.851-10.792z"></path>
		</symbol>
	
</svg>
