<?xml version="1.0" encoding="UTF-8"?><!DOCTYPE svg PUBLIC "-//W3C//DTD SVG 1.1//EN" "http://www.w3.org/Graphics/SVG/1.1/DTD/svg11.dtd"><svg xmlns="http://www.w3.org/2000/svg" xmlns:xlink="http://www.w3.org/1999/xlink"><symbol id="architect" viewBox="-10 0 512 512.001">
    <path d="m214.65625 292.714844h-192.988281c-8.824219 0-8.824219-13.339844 0-13.339844h174.289062c9.917969 0 9.929688-14.996094 0-14.996094h-159.503906v-221.042968h407.183594v221.042968h-48.269531c-9.914063 0-9.933594 14.996094 0 14.996094h65.769531c8.820312 0 8.820312 13.339844 0 13.339844h-83.128907c-9.914062 0-9.929687 15 0 15h83.128907c11.945312 0 21.664062-9.722656 21.664062-21.667969 0-11.949219-9.71875-21.667969-21.664062-21.667969h-2.5v-221.042968h2.5c11.945312 0 21.664062-9.722657 21.664062-21.667969 0-11.949219-9.71875-21.667969-21.664062-21.667969h-439.46875c-11.949219 0-21.667969 9.71875-21.667969 21.667969 0 11.875 9.605469 21.550781 21.453125 21.667969v221.042968c-11.847656.117188-21.453125 9.789063-21.453125 21.667969 0 11.945313 9.71875 21.667969 21.667969 21.667969h192.988281c9.914062 0 9.929688-15 0-15zm-192.988281-277.714844h439.46875c8.820312 0 8.820312 13.335938 0 13.335938h-439.46875c-8.828125 0-8.816407-13.335938 0-13.335938zm0 0"/>
    <path d="m129.078125 70.464844c0-6.585938-5.359375-11.941406-11.945313-11.941406h-47.082031c-6.585937 0-11.941406 5.355468-11.941406 11.941406v29.085937c0 6.585938 5.355469 11.941407 11.941406 11.941407h47.082031c6.585938 0 11.945313-5.355469 11.945313-11.941407zm-15 26.027344h-40.972656v-22.972657h40.972656zm0 0"/>
    <path d="m129.078125 139.96875c0-6.585938-5.359375-11.941406-11.945313-11.941406h-47.082031c-6.585937 0-11.941406 5.355468-11.941406 11.941406v29.085938c0 6.585937 5.355469 11.941406 11.941406 11.941406h47.082031c6.585938 0 11.945313-5.355469 11.945313-11.941406zm-15 26.027344h-40.972656v-22.972656h40.972656zm0 0"/>
    <path d="m117.132812 197.53125h-47.082031c-6.585937 0-11.941406 5.355469-11.941406 11.941406v29.085938c0 6.585937 5.355469 11.941406 11.941406 11.941406h47.082031c6.585938 0 11.945313-5.355469 11.945313-11.941406v-29.085938c0-6.585937-5.359375-11.941406-11.945313-11.941406zm-3.054687 37.972656h-40.972656v-22.976562h40.972656zm0 0"/>
    <path d="m446.351562 340.78125c-8.167968-3.511719-16.734374-6.019531-25.460937-7.71875l-75.988281-14.773438v-18.777343c21.339844-14.554688 32.890625-35.171875 35.40625-58.324219 11.074218-.878906 19.820312-10.171875 19.820312-21.46875v-15.414062c18.058594-7.851563 15.617188-34.203126-3.488281-38.648438v-5.953125c0-53.480469-43.355469-96.839844-96.839844-96.839844h-8.117187c-53.484375 0-96.839844 43.359375-96.839844 96.839844v5.949219c-19.097656 4.445312-21.546875 30.800781-3.484375 38.652344v15.410156c0 11.300781 8.742187 20.59375 19.820313 21.46875 2.503906 23.046875 13.914062 43.667968 35.40625 58.328125v18.773437l-75.988282 14.777344c-8.726562 1.699219-17.292968 4.203125-25.460937 7.71875-30.832031 13.269531-45.875 34.453125-45.875 64.375v15.40625c0 9.914062 14.996093 9.929688 14.996093 0v-15.402344c0-22.472656 10.210938-38.011718 32.609376-48.746094.902343 3.992188 14.644531 41.292969 14.644531 93.410157v47.179687h-31.691407c-8.59375 0-15.5625-6.96875-15.5625-15.5625v-31.039062c0-9.914063-14.996093-9.929688-14.996093 0v31.039062c0 16.878906 13.679687 30.558594 30.558593 30.558594h331.847657c16.878906 0 30.558593-13.679688 30.558593-30.558594v-76.28125c0-29.925781-15.046874-51.109375-45.875-64.378906zm-15.714843 10.058594c-1.042969 4.578125-15.660157 43.929687-15.660157 98.984375v47.179687h-111.734374v-37.785156c0-11.234375 3.417968-22.03125 9.882812-31.21875 9.683594-13.769531 49.570312-71.320312 61.398438-88.671875 53.835937 10.839844 47.34375 8.59375 56.113281 11.511719zm-140.007813 68.527344c-5.753906-8.179688-13.226562-18.914063-21.027344-30.164063 2.316407-.511719 4.578126-1.402344 6.699219-2.671875l19.441407-11.660156 19.441406 11.660156c2.121094 1.269531 4.382812 2.160156 6.699218 2.671875-7.792968 11.246094-15.265624 21.976563-21.023437 30.164063-1.917969 2.726562-3.625 5.5625-5.117187 8.488281-1.488282-2.925781-3.195313-5.761719-5.113282-8.488281zm-10.195312-52.804688c-11.875 6.359375-11.03125 8.261719-16.425782 7.621094-3.355468-.398438-6.367187-2.265625-8.289062-5.046875-8.964844-12.984375-17.265625-25.03125-22.699219-32.933594l15.019531-2.917969c4.851563 14.734375 20.839844 26.453125 32.394532 33.277344zm78.035156-30.355469c-5.449219 7.917969-13.769531 20-22.757812 33.015625-3.667969 5.304688-10.242188 5.984375-12.8125 4.441406l-11.847657-7.101562c11.558594-6.824219 27.542969-18.542969 32.394531-33.277344zm-106.40625-248.097656v9.40625c0 9.914063 14.996094 9.929687 14.996094 0v-15.867187c6.730468-2.128907 13.835937-3.40625 21.1875-3.710938v37.082031c0 9.914063 14.996094 9.929688 14.996094 0v-37.082031c7.351562.304688 14.457031 1.585938 21.183593 3.710938v15.867187c0 9.914063 15 9.929687 15 0v-9.402344c46.882813 26.046875 41.898438 75.828125 42.21875 77.015625h-171.800781c.257812-.964844-4.421875-51.101562 42.21875-77.019531zm-52.585938 92.015625h192.535157c7.191406 0 7.179687 10.863281 0 10.863281h-192.535157c-7.191406 0-7.179687-10.863281 0-10.863281zm26.226563 53.46875c-.089844-4.078125-3.417969-7.335938-7.5-7.335938-1.25-.3125-11.84375 1.945313-11.84375-6.539062v-13.730469h178.773437v13.730469c0 8.472656-10.882812 6.296875-11.847656 6.539062-4.082031 0-7.414062 3.257813-7.5 7.335938-.402344 18.75-8.367187 36.164062-21.859375 47.777344-28.640625 24.660156-67.71875 24.664062-96.363281 0-13.492188-11.613282-21.460938-29.03125-21.859375-47.777344zm104.199219 74.199219v16.675781c0 13.410156-22.757813 27.609375-34.160156 33.347656-11.390626-5.734375-34.097657-19.898437-34.160157-33.292968 0-.015626 0-.035157 0-.054688v-16.675781c21.828125 9.414062 46.46875 9.425781 68.320313 0zm-169.050782 43.046875c8.757813-2.910156 2.25-.667969 56.109376-11.511719l4.285156 6.226563c4.371094 6.355468 10.421875 15.140624 17.128906 24.859374 12.234375 17.734376 29.109375 42.121094 39.988281 57.582032 6.464844 9.191406 9.882813 19.984375 9.882813 31.222656v37.78125h-111.734375v-47.179688c0-56.46875-14.261719-92.824218-15.660157-98.980468zm316.375 130.601562c0 8.578125-6.976562 15.558594-15.558593 15.558594h-31.691407v-47.175781c0-50.6875 14.089844-90.957031 14.648438-93.410157 22.394531 10.734376 32.605469 26.273438 32.605469 48.746094v76.28125zm0 0"/>
    <path d="m336.625 433.785156c-7.070312 0-12.824219 5.753906-12.824219 12.824219v15.027344c0 7.074219 5.753907 12.824219 12.824219 12.824219h44.105469c7.070312 0 12.824219-5.75 12.824219-12.824219v-15.027344c0-7.070313-5.753907-12.824219-12.824219-12.824219zm41.929688 25.675782h-39.753907v-10.675782h39.753907zm0 0"/>
</symbol><symbol id="coins" viewBox="0 0 60 60">
	<path d="M59.989,21c-0.099-1.711-2.134-3.048-6.204-4.068c0.137-0.3,0.214-0.612,0.215-0.936V9h-0.017C53.625,3.172,29.743,3,27,3 S0.375,3.172,0.017,9H0v0.13v0v0l0,6.869c0.005,1.9,2.457,3.387,6.105,4.494c-0.05,0.166-0.08,0.335-0.09,0.507H6v0.13v0v0l0,6.857 C2.07,28.999,0.107,30.317,0.01,32H0v0.13v0v0l0,6.869c0.003,1.323,1.196,2.445,3.148,3.38c-0.074,0.203-0.12,0.41-0.133,0.622H3 v0.13v0v0l0,6.869c0.008,3.326,7.497,5.391,15.818,6.355c0.061,0.012,0.117,0.037,0.182,0.037c0.019,0,0.035-0.01,0.054-0.011 c1.604,0.181,3.234,0.322,4.847,0.423c0.034,0.004,0.064,0.02,0.099,0.02c0.019,0,0.034-0.01,0.052-0.011 C26.1,56.937,28.115,57,30,57c1.885,0,3.9-0.063,5.948-0.188c0.018,0.001,0.034,0.011,0.052,0.011c0.035,0,0.065-0.017,0.099-0.02 c1.613-0.101,3.243-0.241,4.847-0.423C40.965,56.38,40.981,56.39,41,56.39c0.065,0,0.121-0.025,0.182-0.037 c8.321-0.964,15.809-3.03,15.818-6.357V43h-0.016c-0.07-1.226-1.115-2.249-3.179-3.104c0.126-0.289,0.195-0.589,0.195-0.9V32.46 c3.59-1.104,5.995-2.581,6-4.464V21H59.989z M51.892,39.321l-0.341,0.299C51.026,40.083,50.151,40.55,49,41v-4.768 c1.189-0.414,2.201-0.873,3-1.376v4.138C52,39.097,51.962,39.207,51.892,39.321z M29.526,43.968 c-0.146,0.004-0.293,0.006-0.44,0.009c-0.357,0.007-0.723,0.009-1.085,0.012v-4.995c0.275-0.003,0.55-0.007,0.825-0.012 c0.053-0.001,0.106-0.002,0.159-0.003c1.007-0.019,2.014-0.05,3.016-0.096v4.993c-0.214,0.011-0.429,0.021-0.646,0.03 C30.753,43.933,30.145,43.953,29.526,43.968z M25.159,43.982c-0.458-0.008-0.914-0.019-1.367-0.033 c-0.056-0.002-0.112-0.004-0.168-0.006c-0.545-0.018-1.086-0.041-1.623-0.067v-4.992c1.002,0.047,2.009,0.078,3.016,0.096 c0.053,0.001,0.106,0.002,0.158,0.003c0.275,0.005,0.55,0.009,0.825,0.012v4.998c-0.194-0.002-0.388-0.002-0.581-0.005 C25.331,43.986,25.246,43.983,25.159,43.982z M7.097,41.702C7.064,41.692,7.033,41.683,7,41.674v-4.831 c0.934,0.252,1.938,0.482,3,0.691v4.881c-0.918-0.195-1.765-0.4-2.536-0.61C7.342,41.77,7.216,41.737,7.097,41.702z M28.175,49.983 c0.275,0.005,0.55,0.009,0.825,0.012v4.999c-1.382-0.013-2.716-0.053-4-0.116v-4.993c1.002,0.047,2.009,0.078,3.016,0.096 C28.069,49.981,28.122,49.982,28.175,49.983z M31.984,49.98c1.007-0.019,2.014-0.05,3.016-0.096v4.993 c-1.284,0.063-2.618,0.103-4,0.116v-4.999c0.275-0.003,0.55-0.007,0.825-0.012C31.878,49.982,31.931,49.981,31.984,49.98z M40,49.528v4.966c-0.961,0.101-1.961,0.19-3,0.263v-4.987C38.014,49.704,39.016,49.623,40,49.528z M42,49.312 c1.031-0.124,2.032-0.265,3-0.422v4.91c-0.942,0.166-1.943,0.319-3,0.458V49.312z M47,48.533c1.062-0.209,2.066-0.439,3-0.691v4.831 c-0.891,0.257-1.894,0.506-3,0.741V48.533z M13,48.533v4.881c-1.106-0.235-2.109-0.484-3-0.741v-4.831 C10.934,48.094,11.938,48.325,13,48.533z M15,48.891c0.968,0.157,1.969,0.298,3,0.422v4.946c-1.057-0.139-2.058-0.292-3-0.458 V48.891z M20,49.528c0.984,0.095,1.986,0.176,3,0.243v4.987c-1.039-0.073-2.039-0.162-3-0.263V49.528z M17.519,43.548 c-0.102-0.01-0.203-0.021-0.304-0.031c-0.072-0.007-0.143-0.016-0.215-0.023v-4.965c0.984,0.095,1.986,0.176,3,0.243v4.983 C19.16,43.695,18.33,43.627,17.519,43.548z M15,38.312v4.946c-1.057-0.139-2.058-0.292-3-0.458v-4.91 C12.968,38.047,13.969,38.189,15,38.312z M34.666,43.708c-0.22,0.017-0.442,0.034-0.666,0.05v-4.987 c1.014-0.067,2.016-0.147,3-0.243v4.966c-0.618,0.065-1.25,0.126-1.899,0.179C34.956,43.686,34.811,43.697,34.666,43.708z M39,43.258v-4.946c1.031-0.124,2.032-0.265,3-0.422v4.91C41.058,42.966,40.057,43.12,39,43.258z M44,37.533 c1.062-0.209,2.066-0.439,3-0.691v4.831c-0.891,0.257-1.894,0.506-3,0.741V37.533z M30.325,32.965 c-0.752-0.019-1.487-0.048-2.209-0.083c-0.039-0.002-0.078-0.004-0.116-0.005v-4.993c1.002,0.047,2.009,0.078,3.016,0.096 c0.053,0.001,0.106,0.002,0.158,0.003c0.275,0.005,0.55,0.009,0.825,0.012v4.993c-0.487-0.005-0.978-0.007-1.453-0.018 C30.473,32.968,30.398,32.967,30.325,32.965z M7,18.674v-4.831c0.934,0.252,1.938,0.482,3,0.691v4.881 c-0.123-0.026-0.25-0.052-0.37-0.078c-0.532-0.117-1.051-0.239-1.547-0.368C7.705,18.872,7.346,18.773,7,18.674z M25.175,15.983 c0.275,0.005,0.55,0.009,0.825,0.012v4.993c-1.346-0.013-2.684-0.048-4-0.114v-4.989c1.002,0.047,2.009,0.078,3.016,0.096 C25.069,15.981,25.122,15.982,25.175,15.983z M28.984,15.98c1.007-0.019,2.014-0.05,3.016-0.096v4.989 c-0.17,0.008-0.333,0.02-0.504,0.028c-0.014,0.001-0.028,0.001-0.043,0.002c-0.671,0.03-1.355,0.052-2.048,0.068 c-0.108,0.003-0.216,0.004-0.324,0.007c-0.356,0.007-0.72,0.008-1.081,0.012v-4.995c0.275-0.003,0.55-0.007,0.825-0.012 C28.878,15.982,28.931,15.981,28.984,15.98z M51.771,16.482l-0.028-0.006l-0.364,0.283C50.851,17.17,50.04,17.586,49,17.988v-4.757 c1.189-0.414,2.201-0.873,3-1.376v4.138C52,16.145,51.92,16.309,51.771,16.482z M39,20.252v-4.94c1.031-0.124,2.032-0.265,3-0.422 v4.902C41.052,19.96,40.054,20.114,39,20.252z M44,19.407v-4.873c1.062-0.209,2.066-0.439,3-0.691v4.82 C46.104,18.924,45.095,19.173,44,19.407z M37,15.528v4.96c-0.966,0.102-1.966,0.191-3,0.265v-4.982 C35.014,15.704,36.016,15.623,37,15.528z M17,20.49v-4.962c0.984,0.095,1.986,0.176,3,0.243v4.978 C18.982,20.676,17.978,20.593,17,20.49z M15,15.312v4.941c-0.198-0.026-0.404-0.047-0.6-0.074c-0.128-0.018-0.25-0.037-0.376-0.055 c-0.578-0.083-1.143-0.172-1.697-0.265C12.216,19.84,12.109,19.82,12,19.801v-4.91C12.968,15.047,13.969,15.189,15,15.312z M25.752,32.739c-0.135-0.01-0.271-0.02-0.405-0.03c-0.64-0.05-1.265-0.105-1.875-0.166c-0.131-0.013-0.262-0.027-0.392-0.04 C23.053,32.5,23.027,32.496,23,32.494v-4.966c0.984,0.095,1.986,0.176,3,0.243v4.984C25.919,32.749,25.833,32.745,25.752,32.739z M19.145,31.992c-0.396-0.063-0.768-0.131-1.145-0.197v-4.904c0.968,0.157,1.969,0.298,3,0.422v4.946 c-0.612-0.081-1.211-0.165-1.786-0.255C19.191,31.999,19.168,31.995,19.145,31.992z M16,26.533v4.873 c-1.105-0.237-2.107-0.489-3-0.751v-4.813C13.934,26.094,14.938,26.325,16,26.533z M11,25.231v4.751 c-1.572-0.607-2.586-1.227-2.916-1.779l-0.067-0.112C8.011,28.06,8.001,28.027,8,27.996l0-4.141 C8.799,24.358,9.811,24.817,11,25.231z M34.984,27.98c1.007-0.019,2.014-0.05,3.016-0.096v4.988c-1.314,0.065-2.65,0.101-4,0.115 v-4.992c0.275-0.003,0.55-0.007,0.825-0.012C34.878,27.982,34.931,27.981,34.984,27.98z M47.907,31.817 c-0.439,0.076-0.882,0.151-1.337,0.22c-0.261,0.04-0.528,0.078-0.796,0.116c-0.253,0.036-0.516,0.067-0.773,0.1v-4.941 c1.031-0.124,2.032-0.265,3-0.422v4.91C47.969,31.806,47.938,31.812,47.907,31.817z M41.136,32.671 c-0.373,0.031-0.758,0.051-1.136,0.078v-4.978c1.014-0.067,2.016-0.147,3-0.243v4.961c-0.581,0.061-1.161,0.122-1.758,0.172 C41.206,32.664,41.172,32.668,41.136,32.671z M52.564,30.796c-0.498,0.139-1.025,0.269-1.563,0.396 c-0.249,0.058-0.503,0.116-0.763,0.172c-0.077,0.017-0.159,0.032-0.237,0.049v-4.879c1.062-0.209,2.066-0.439,3-0.691v4.831 C52.857,30.714,52.712,30.755,52.564,30.796z M57.989,21.065c-0.092,0.679-1.631,1.582-4.378,2.431l0,0 c-3.538,1.093-9.074,2.094-16.09,2.404c-0.359,0.015-0.717,0.03-1.083,0.042c-0.299,0.01-0.599,0.019-0.904,0.027 C34.706,25.987,33.866,26,33,26s-1.706-0.013-2.534-0.032c-0.304-0.007-0.604-0.017-0.904-0.027 c-0.367-0.011-0.725-0.027-1.083-0.042c-7.016-0.31-12.553-1.311-16.09-2.404l0,0c-2.725-0.842-4.261-1.738-4.375-2.414 c0.005-0.019,0.005-0.035,0.017-0.059c0.068,0.017,0.144,0.031,0.213,0.048c0.391,0.093,0.792,0.183,1.2,0.269 c1.987,0.428,4.189,0.779,6.535,1.047c0.008,0,0.014,0.004,0.021,0.004c0.002,0,0.004-0.001,0.005-0.001 c1.598,0.182,3.256,0.325,4.958,0.426c0.013,0,0.024,0.007,0.037,0.007c0.007,0,0.012-0.004,0.019-0.004 c1.225,0.072,2.466,0.125,3.722,0.153C25.51,22.99,26.265,23,27,23c0.525,0,1.063-0.006,1.606-0.016 c7.266-0.112,14-0.976,18.686-2.315c0.216-0.061,0.427-0.124,0.635-0.187c0.127-0.039,0.257-0.077,0.38-0.116 c0.362-0.116,0.709-0.235,1.044-0.359c0.058-0.022,0.113-0.044,0.171-0.066c0.283-0.107,0.555-0.218,0.815-0.331 c0.075-0.033,0.152-0.065,0.225-0.098c0.277-0.125,0.545-0.253,0.793-0.386c0.112-0.059,0.209-0.12,0.314-0.18 c0.12-0.069,0.24-0.139,0.351-0.21c0.063-0.04,0.138-0.078,0.198-0.118C56.695,19.589,57.875,20.651,57.989,21.065z M27,5 c16.489,0,24.829,2.596,24.985,4.086c-0.121,0.676-1.656,1.569-4.374,2.409l0,0c-3.538,1.093-9.074,2.094-16.09,2.404 c-0.359,0.015-0.717,0.03-1.083,0.042c-0.299,0.01-0.599,0.019-0.904,0.027C28.706,13.987,27.866,14,27,14s-1.706-0.013-2.534-0.032 c-0.304-0.007-0.604-0.017-0.904-0.027c-0.367-0.011-0.725-0.027-1.083-0.042c-7.016-0.31-12.553-1.311-16.09-2.404l0,0 c-2.719-0.84-4.253-1.733-4.374-2.409C2.171,7.596,10.511,5,27,5z M2,15.996l0-4.141c0.799,0.503,1.811,0.962,3,1.376v4.788 C3.055,17.29,2.002,16.559,2,15.996z M6.844,29.835c0.015,0.016,0.038,0.03,0.053,0.046c1.369,1.382,4.204,2.468,7.733,3.278 c0.081,0.019,0.167,0.037,0.249,0.056c0.259,0.058,0.522,0.115,0.788,0.17c3.241,0.69,7.11,1.189,11.325,1.436 c0.003,0,0.005,0.001,0.007,0.001c0.002,0,0.003-0.001,0.004-0.001c1.354,0.079,2.739,0.134,4.153,0.158 C31.782,34.992,32.398,35,33,35c0.69,0,1.398-0.008,2.118-0.025c1.308-0.027,2.597-0.081,3.868-0.155 c0.005,0,0.009,0.003,0.014,0.003c0.009,0,0.016-0.005,0.025-0.005c4.226-0.249,8.191-0.753,11.544-1.478 c-0.726,0.38-1.72,0.773-2.958,1.156l0,0c-3.735,1.154-9.7,2.205-17.281,2.449c-0.225,0.007-0.447,0.015-0.675,0.021 c-0.245,0.006-0.494,0.01-0.743,0.015C28.283,36.991,27.65,37,27,37c-0.866,0-1.706-0.013-2.534-0.032 c-0.304-0.007-0.604-0.017-0.904-0.027c-0.367-0.011-0.725-0.027-1.083-0.042c-7.016-0.31-12.553-1.311-16.09-2.404l0,0 c-2.75-0.85-4.289-1.754-4.378-2.433C2.122,31.686,3.133,30.745,6.844,29.835z M2,38.996l0-4.141c0.799,0.503,1.811,0.962,3,1.376 v4.769l-0.571-0.222L4.417,40.79C2.847,40.139,2.002,39.5,2,38.996z M5,49.996l0-4.141c0.799,0.503,1.811,0.962,3,1.376v4.788 C6.055,51.29,5.002,50.559,5,49.996z M52,52.019v-4.787c1.189-0.414,2.201-0.873,3-1.376v4.138 C54.999,50.557,53.945,51.289,52,52.019z M54.987,43.077c-0.109,0.677-1.645,1.575-4.376,2.419l0,0 c-3.538,1.093-9.074,2.094-16.09,2.404c-0.359,0.015-0.717,0.03-1.083,0.042c-0.299,0.01-0.599,0.019-0.904,0.027 C31.706,47.987,30.866,48,30,48c-0.866,0-1.707-0.013-2.536-0.032c-0.301-0.007-0.598-0.017-0.895-0.027 c-0.369-0.012-0.729-0.027-1.09-0.042c-7.016-0.31-12.552-1.311-16.09-2.404l0,0c-2.645-0.817-4.173-1.685-4.365-2.355 c0.298,0.104,0.607,0.205,0.924,0.304c0.032,0.01,0.064,0.02,0.096,0.029c0.27,0.083,0.546,0.163,0.829,0.241 c0.107,0.03,0.215,0.06,0.324,0.089c0.16,0.043,0.324,0.084,0.488,0.126c3.642,0.933,8.291,1.594,13.31,1.891 c0.002,0,0.003,0.001,0.005,0.001c0.001,0,0.002-0.001,0.003-0.001c1.55,0.092,3.133,0.149,4.733,0.168 C26.162,45.996,26.585,46,27,46c0.551,0,1.115-0.007,1.686-0.017c1.459-0.024,2.899-0.078,4.307-0.162 c0.003,0,0.005,0.002,0.008,0.002c0.005,0,0.008-0.003,0.013-0.003c1.715-0.103,3.375-0.25,4.97-0.433 c0.006,0,0.011,0.003,0.017,0.003c0.022,0,0.04-0.011,0.062-0.013c1.776-0.205,3.46-0.457,5.023-0.75 c0.322-0.059,0.639-0.12,0.953-0.183c0.07-0.014,0.14-0.028,0.21-0.043c2.953-0.606,5.509-1.391,7.263-2.364 c0.096-0.052,0.186-0.106,0.277-0.159c0.111-0.066,0.217-0.133,0.32-0.201c0.096-0.062,0.207-0.122,0.295-0.185 C54.378,42.196,54.922,42.826,54.987,43.077z M55,30.019v-4.787c1.189-0.41 2.201-0.873,3-1.376v4.138 C57.999,28.557,56.945,29.289,55,30.019z"/>
</symbol><symbol id="diploma" viewBox="-20 0 476 476.32504">
    <path d="m360.164062 352c0-26.507812-21.492187-48-48-48-26.511718 0-48 21.492188-48 48s21.488282 48 48 48c26.496094-.027344 47.972657-21.5 48-48zm-48 32c-17.675781 0-32-14.328125-32-32s14.324219-32 32-32c17.671876 0 32 14.328125 32 32s-14.328124 32-32 32zm0 0"/>
    <path d="m434.136719 428.664062-52.476563-52.480468c1.398438-1.246094 3.039063-2.550782 4.429688-3.65625 6.273437-4.953125 14.074218-11.121094 14.074218-20.527344s-7.808593-15.574219-14.074218-20.527344c-2.824219-1.929687-5.320313-4.300781-7.390625-7.023437-.578125-3.578125-.523438-7.226563.160156-10.785157.910156-8.183593 1.949219-17.472656-4.472656-23.886718-6.425781-6.417969-15.71875-5.410156-23.886719-4.472656-3.554688.683593-7.203125.738281-10.777344.160156-2.730468-2.066406-5.105468-4.5625-7.03125-7.394532-4.953125-6.269531-11.121094-14.070312-20.527344-14.070312-9.410156 0-15.578124 7.808594-20.53125 14.070312-1.925781 2.828126-4.296874 5.324219-7.023437 7.394532-3.574219.570312-7.226563.515625-10.78125-.160156-8.175781-.9375-17.472656-1.953126-23.890625 4.472656-6.414062 6.421875-5.382812 15.703125-4.472656 23.886718.683594 3.554688.738281 7.203126.160156 10.777344-2.066406 2.726563-4.5625 5.101563-7.390625 7.03125-6.273437 4.953125-14.070313 11.121094-14.070313 20.527344s7.804688 15.574219 14.070313 20.527344c1.390625 1.105468 3.03125 2.402344 4.433594 3.65625l-52.480469 52.480468c-2.089844 2.085938-2.859375 5.152344-2.003906 7.976563.855468 2.824219 3.195312 4.949219 6.089844 5.527344l23.089843 4.632812 4.632813 23.085938c.578125 2.898437 2.707031 5.238281 5.535156 6.089843 2.832031.863282 5.90625.09375 8-2l52.480469-52.480468c1.246093 1.398437 2.550781 3.039062 3.65625 4.433594 4.917969 6.269531 11.085937 14.070312 20.496093 14.070312 9.40625 0 15.574219-7.808594 20.527344-14.070312 1.101563-1.394532 2.398438-3.035157 3.65625-4.433594l52.480469 52.480468c2.085937 2.085938 5.152344 2.855469 7.976563 2 2.824218-.855468 4.949218-3.195312 5.527343-6.089843l4.628907-23.085938 23.089843-4.632812c2.894531-.578125 5.234375-2.703125 6.089844-5.527344s.085937-5.890625-2.003906-7.976563zm-199.390625 23.441407-2.742188-13.707031c-.636718-3.164063-3.109375-5.636719-6.273437-6.269532l-13.671875-2.746094 32.800781-32.796874c-1.464844 6.351562.445313 13.011718 5.054687 17.625 4.609376 4.609374 11.269532 6.523437 17.625 5.0625zm85.417968-36.105469c-2.058593 2.601562-6.320312 8-8 8-1.679687 0-5.929687-5.398438-8-8-3.375-5.148438-8-9.359375-13.441406-12.238281-3.023437-1.175781-6.246094-1.734375-9.488281-1.648438-3.070313.058594-6.136719.285157-9.183594.6875-3.554687.675781-7.203125.726563-10.777343.144531-.636719-3.585937-.609376-7.257812.089843-10.832031 1.25-6.210937.921875-12.632812-.960937-18.679687-2.882813-5.4375-7.09375-10.058594-12.238282-13.433594-2.601562-2.054688-8-6.320312-8-8s5.398438-5.929688 8-8c5.148438-3.375 9.359376-8 12.238282-13.441406 1.882812-6.042969 2.210937-12.464844.960937-18.671875-.683593-3.554688-.730469-7.203125-.144531-10.773438 3.585938-.636719 7.257812-.605469 10.832031.085938 6.207031 1.257812 12.632813.929687 18.679688-.960938 5.4375-2.882812 10.054687-7.09375 13.433593-12.238281 2.054688-2.601562 6.320313-8 8-8 1.679688 0 5.925782 5.398438 8 8 3.375 5.148438 7.996094 9.359375 13.4375 12.238281 6.046876 1.886719 12.46875 2.21875 18.671876.960938 3.554687-.683594 7.203124-.730469 10.777343-.144531.640625 3.585937.609375 7.257812-.089843 10.832031-1.25 6.210937-.917969 12.632812.960937 18.679687 2.886719 5.4375 7.09375 10.058594 12.242187 13.433594 2.597657 2.054688 8 6.320312 8 8s-5.402343 5.929688-8 8c-5.148437 3.375-9.359374 8-12.242187 13.441406-1.878906 6.042969-2.210937 12.464844-.960937 18.671875.683593 3.554688.734374 7.203125.144531 10.773438-3.585938.628906-7.253907.597656-10.832031-.085938-6.207032-1.257812-12.632813-.925781-18.679688.960938-5.433594 2.882812-10.054688 7.09375-13.429688 12.238281zm78.398438 16.160156c-3.164062.632813-5.636719 3.109375-6.273438 6.273438l-2.742187 13.671875-32.800781-32.800781c6.355468 1.460937 13.015625-.449219 17.625-5.0625 4.609375-4.613282 6.519531-11.273438 5.054687-17.625l32.800781 32.796874zm0 0"/>
    <path d="m176.164062 432h-136c-22.082031-.027344-39.976562-17.917969-40-40v-352c.023438-22.082031 17.917969-39.9726562 40-40h256c22.078126.0273438 39.972657 17.917969 40 40v208h-16v-208c0-13.253906-10.746093-24-24-24h-256c-13.257812 0-24 10.746094-24 24v352c0 13.253906 10.742188 24 24 24h136zm0 0"/>
    <path d="m48.164062 208h240v16h-240zm0 0"/>
    <path d="m48.164062 256h224v16h-224zm0 0"/>
    <path d="m48.164062 304h176v16h-176zm0 0"/>
    <path d="m48.164062 160h240v16h-240zm0 0"/>
    <path d="m48.164062 112h240v16h-240zm0 0"/>
</symbol><symbol id="email" viewBox="0 0 511.996 511.996">
    <path d="m230.9 253.371c13.369 8.913 36.827 8.914 50.199-.001.002-.001.005-.003.007-.004l227.865-151.911c-7.474-21.616-28.018-37.188-52.142-37.188h-401.663c-24.125 0-44.668 15.572-52.143 37.188l227.87 151.912c.003.002.005.002.007.004z"/>
    <path d="m297.746 278.328c-.003.002-.005.004-.007.005-11.702 7.801-26.724 11.702-41.741 11.702-15.02 0-30.036-3.9-41.739-11.703-.002-.001-.003-.002-.005-.003l-214.254-142.835v257.072c0 30.417 24.747 55.163 55.166 55.163h401.666c30.418 0 55.164-24.746 55.164-55.163v-257.072z"/>
</symbol><symbol id="phone-call" viewBox="0 0 108.27 108.27">
	<g>
		<path d="M51.954,66.588c-9.284-7.634-15.483-17.054-18.742-22.414l-2.431-4.583c0.85-0.912,7.332-7.853,10.141-11.619 c3.53-4.729-1.588-9-1.588-9S24.933,4.569,21.651,1.712c-3.282-2.861-7.06-1.272-7.06-1.272C7.693,4.897,0.542,8.772,0.113,27.408 C0.097,44.856,13.342,62.852,27.665,76.784c14.346,15.734,34.043,31.504,53.086,31.486c18.634-0.425,22.508-7.575,26.965-14.473 c0,0,1.59-3.775-1.268-7.06c-2.86-3.284-17.265-17.688-17.265-17.688s-4.268-5.119-8.998-1.586 c-3.525,2.635-9.855,8.496-11.38,9.917C68.808,77.385,58.219,71.74,51.954,66.588z"/>
	</g>
</symbol></svg>