<svg height="512" viewBox="-10 0 512 512.001" width="512" xmlns="http://www.w3.org/2000/svg"><path d="M214.656 292.715H21.668c-8.824 0-8.824-13.34 0-13.34h174.289c9.918 0 9.93-14.996 0-14.996H36.453V43.336h407.184v221.043h-48.27c-9.914 0-9.933 14.996 0 14.996h65.77c8.82 0 8.82 13.34 0 13.34h-83.13c-9.913 0-9.929 15 0 15h83.13c11.945 0 21.664-9.723 21.664-21.668 0-11.95-9.719-21.668-21.664-21.668h-2.5V43.336h2.5c11.945 0 21.664-9.723 21.664-21.668C482.8 9.718 473.082 0 461.137 0H21.668C9.718 0 0 9.719 0 21.668c0 11.875 9.605 21.55 21.453 21.668v221.043C9.605 264.496 0 274.168 0 286.047c0 11.945 9.719 21.668 21.668 21.668h192.988c9.914 0 9.93-15 0-15zM21.668 15h439.469c8.82 0 8.82 13.336 0 13.336H21.668c-8.828 0-8.816-13.336 0-13.336zm0 0"/><path d="M129.078 70.465c0-6.586-5.36-11.942-11.945-11.942H70.05c-6.586 0-11.942 5.356-11.942 11.942V99.55c0 6.586 5.356 11.941 11.942 11.941h47.082c6.586 0 11.945-5.355 11.945-11.941zm-15 26.027H73.105V73.52h40.973zm15 43.477c0-6.586-5.36-11.942-11.945-11.942H70.05c-6.586 0-11.942 5.356-11.942 11.942v29.086c0 6.586 5.356 11.941 11.942 11.941h47.082c6.586 0 11.945-5.355 11.945-11.941zm-15 26.027H73.105v-22.973h40.973zm3.055 31.535H70.05c-6.586 0-11.942 5.356-11.942 11.942v29.086c0 6.586 5.356 11.941 11.942 11.941h47.082c6.586 0 11.945-5.355 11.945-11.941v-29.086c0-6.586-5.36-11.942-11.945-11.942zm-3.055 37.973H73.105v-22.977h40.973zm332.274 105.277c-8.168-3.511-16.735-6.02-25.461-7.719l-75.989-14.773v-18.777c21.34-14.555 32.891-35.172 35.407-58.324 11.074-.88 19.82-10.172 19.82-21.47v-15.413c18.058-7.852 15.617-34.203-3.488-38.649v-5.953c0-53.48-43.356-96.84-96.84-96.84h-8.117c-53.485 0-96.84 43.36-96.84 96.84v5.95c-19.098 4.445-21.547 30.8-3.485 38.652v15.41c0 11.3 8.743 20.594 19.82 21.469 2.505 23.046 13.915 43.668 35.407 58.328v18.773l-75.988 14.778c-8.727 1.699-17.293 4.203-25.461 7.718-30.832 13.27-45.875 34.453-45.875 64.375v15.406c0 9.915 14.996 9.93 14.996 0V405.16c0-22.472 10.21-38.012 32.61-48.746.902 3.992 14.644 41.293 14.644 93.41v47.18H129.82c-8.593 0-15.562-6.969-15.562-15.563v-31.039c0-9.914-14.996-9.93-14.996 0v31.04c0 16.878 13.68 30.558 30.558 30.558h331.848c16.879 0 30.559-13.68 30.559-30.559v-76.28c0-29.927-15.047-51.11-45.875-64.38zm-15.715 10.059c-1.043 4.578-15.66 43.93-15.66 98.984v47.18H303.242v-37.785A53.98 53.98 0 01313.125 428c9.684-13.77 49.57-71.32 61.398-88.672 53.836 10.84 47.344 8.594 56.114 11.512zm-140.008 68.527c-5.754-8.18-13.227-18.914-21.027-30.164a22.48 22.48 0 006.699-2.672l19.441-11.66 19.442 11.66a22.48 22.48 0 006.699 2.672c-7.793 11.246-15.266 21.977-21.024 30.164a70.13 70.13 0 00-5.117 8.488 69.603 69.603 0 00-5.113-8.488zm-10.195-52.805c-11.875 6.36-11.032 8.262-16.426 7.622-3.356-.399-6.367-2.266-8.29-5.047a22419.796 22419.796 0 01-22.698-32.934l15.02-2.918c4.85 14.735 20.839 26.453 32.394 33.277zm78.035-30.355c-5.45 7.918-13.77 20-22.758 33.016-3.668 5.304-10.242 5.984-12.813 4.441l-11.847-7.102c11.558-6.824 27.543-18.542 32.394-33.277zM252.063 88.109v9.407c0 9.914 14.996 9.93 14.996 0V81.648a81.35 81.35 0 0121.187-3.71v37.082c0 9.914 14.996 9.93 14.996 0V77.937a81.454 81.454 0 0121.184 3.711v15.868c0 9.914 15 9.93 15 0v-9.403c46.883 26.047 41.898 75.828 42.219 77.016H209.844c.258-.965-4.422-51.102 42.218-77.02zm-52.586 92.016h192.535c7.191 0 7.18 10.863 0 10.863H199.477c-7.192 0-7.18-10.863 0-10.863zm26.226 53.469a7.499 7.499 0 00-7.5-7.336c-1.25-.313-11.844 1.945-11.844-6.54v-13.73h178.774v13.73c0 8.473-10.883 6.298-11.848 6.54a7.496 7.496 0 00-7.5 7.336c-.402 18.75-8.367 36.164-21.86 47.777-28.64 24.66-67.718 24.664-96.362 0-13.493-11.613-21.461-29.031-21.86-47.777zm104.2 74.199v16.676c0 13.41-22.758 27.61-34.16 33.347-11.391-5.734-34.098-19.898-34.161-33.293v-16.73a86.117 86.117 0 0068.32 0zM160.851 350.84c8.757-2.91 2.25-.668 56.109-11.512l4.285 6.227c4.371 6.355 10.422 15.14 17.129 24.86 12.234 17.733 29.11 42.12 39.988 57.581 6.465 9.191 9.883 19.984 9.883 31.223V497H176.512v-47.18c0-56.468-14.262-92.824-15.66-98.98zm316.376 130.6c0 8.579-6.977 15.559-15.559 15.559h-31.691v-47.176c0-50.687 14.09-90.957 14.648-93.41 22.395 10.734 32.605 26.273 32.605 48.746v76.281zm0 0"/><path d="M336.625 433.785c-7.07 0-12.824 5.754-12.824 12.824v15.028c0 7.074 5.754 12.824 12.824 12.824h44.105c7.07 0 12.825-5.75 12.825-12.824v-15.028c0-7.07-5.754-12.824-12.825-12.824zm41.93 25.676H338.8v-10.676h39.754zm0 0"/></svg>