<svg height="476" viewBox="-20 0 476 476.325" width="476" xmlns="http://www.w3.org/2000/svg"><path d="M360.164 352c0-26.508-21.492-48-48-48-26.512 0-48 21.492-48 48s21.488 48 48 48c26.496-.027 47.973-21.5 48-48zm-48 32c-17.676 0-32-14.328-32-32s14.324-32 32-32c17.672 0 32 14.328 32 32s-14.328 32-32 32zm0 0"/><path d="M434.137 428.664l-52.477-52.48c1.399-1.247 3.04-2.551 4.43-3.657 6.273-4.953 14.074-11.12 14.074-20.527s-7.809-15.574-14.074-20.527a31.873 31.873 0 01-7.39-7.024 30.97 30.97 0 01.16-10.785c.91-8.184 1.949-17.473-4.473-23.887-6.426-6.418-15.719-5.41-23.887-4.472a30.926 30.926 0 01-10.777.16 31.454 31.454 0 01-7.032-7.395c-4.953-6.27-11.12-14.07-20.527-14.07-9.41 0-15.578 7.809-20.531 14.07a31.652 31.652 0 01-7.024 7.395 31.33 31.33 0 01-10.78-.16c-8.177-.938-17.474-1.953-23.891 4.472-6.415 6.422-5.383 15.703-4.473 23.887.683 3.555.738 7.203.16 10.777a31.672 31.672 0 01-7.39 7.032c-6.274 4.953-14.07 11.12-14.07 20.527s7.804 15.574 14.07 20.527c1.39 1.106 3.03 2.403 4.433 3.657l-52.48 52.48a8 8 0 004.086 13.504l23.09 4.633 4.632 23.086a7.992 7.992 0 005.535 6.09 8.009 8.009 0 008-2l52.48-52.48c1.247 1.398 2.552 3.038 3.657 4.433 4.918 6.27 11.086 14.07 20.496 14.07 9.406 0 15.574-7.809 20.527-14.07 1.102-1.395 2.399-3.035 3.657-4.434l52.48 52.48a8.002 8.002 0 0013.504-4.09l4.629-23.085 23.09-4.633a8 8 0 004.086-13.504zm-199.39 23.441l-2.743-13.707a8.001 8.001 0 00-6.274-6.27l-13.671-2.745 32.8-32.797a18.922 18.922 0 0022.68 22.687zM320.163 416c-2.059 2.602-6.32 8-8 8-1.68 0-5.93-5.398-8-8a36.46 36.46 0 00-13.441-12.238 24.382 24.382 0 00-9.489-1.649c-3.07.059-6.136.285-9.183.688a31.019 31.019 0 01-10.778.144 29.527 29.527 0 01.09-10.832 37.762 37.762 0 00-.96-18.68A36.537 36.537 0 00248.163 360c-2.601-2.055-8-6.32-8-8s5.399-5.93 8-8c5.149-3.375 9.36-8 12.238-13.441a37.731 37.731 0 00.961-18.672 30.716 30.716 0 01-.144-10.774 29.698 29.698 0 0110.832.086 37.583 37.583 0 0018.68-.96A36.567 36.567 0 00304.163 288c2.055-2.602 6.32-8 8-8 1.68 0 5.926 5.398 8 8a36.451 36.451 0 0013.438 12.238 37.6 37.6 0 0018.671.961 30.737 30.737 0 0110.778-.144 29.44 29.44 0 01-.09 10.832 37.808 37.808 0 00.96 18.68A36.547 36.547 0 00376.165 344c2.598 2.055 8 6.32 8 8s-5.402 5.93-8 8c-5.148 3.375-9.36 8-12.242 13.441a37.777 37.777 0 00-.961 18.672c.684 3.555.734 7.203.144 10.774a30.046 30.046 0 01-10.832-.086 37.628 37.628 0 00-18.68.96A36.556 36.556 0 00320.165 416zm78.399 16.16a8.006 8.006 0 00-6.274 6.274l-2.742 13.671-32.8-32.8a18.92 18.92 0 0022.679-22.688l32.8 32.797zm0 0"/><path d="M176.164 432h-136c-22.082-.027-39.977-17.918-40-40V40c.024-22.082 17.918-39.973 40-40h256c22.078.027 39.973 17.918 40 40v208h-16V40c0-13.254-10.746-24-24-24h-256c-13.258 0-24 10.746-24 24v352c0 13.254 10.742 24 24 24h136zm0 0"/><path d="M48.164 208h240v16h-240zm0 48h224v16h-224zm0 48h176v16h-176zm0-144h240v16h-240zm0-48h240v16h-240zm0 0"/></svg>